<?xml version="1.0" encoding="UTF-8"?>
<svg width="512" height="512" viewBox="0 0 512 512" fill="none" xmlns="http://www.w3.org/2000/svg">
    <!-- Database Base -->
    <ellipse cx="256" cy="384" rx="160" ry="48" fill="#1976D2" opacity="0.9"/>
    <ellipse cx="256" cy="128" rx="160" ry="48" fill="#1976D2"/>
    <path d="M96 128v256c0 26.51 71.63 48 160 48s160-21.49 160-48V128" stroke="#2196F3" stroke-width="16" fill="none"/>
    <path d="M96 256c0 26.51 71.63 48 160 48s160-21.49 160-48" stroke="#2196F3" stroke-width="16" fill="none"/>
    
    <!-- SQL Text -->
    <g transform="translate(256, 256)" fill="#FFFFFF">
        <text x="-40" y="10" font-family="Arial, sans-serif" font-weight="bold" font-size="72" fill="#FFFFFF">SQL</text>
    </g>
    
    <!-- Hub Connection Lines -->
    <g stroke="#64B5F6" stroke-width="12">
        <path d="M256 180 L356 80" />
        <path d="M256 180 L156 80" />
        <path d="M256 180 L256 80" />
    </g>
    
    <!-- Connection Points -->
    <circle cx="156" cy="80" r="8" fill="#90CAF9"/>
    <circle cx="256" cy="80" r="8" fill="#90CAF9"/>
    <circle cx="356" cy="80" r="8" fill="#90CAF9"/>
</svg> 